<svg xmlns="http://www.w3.org/2000/svg" width="128" height="128">
    <path
        d="M46.359 58.148s-3.011 13.442-3.534 16.266A12.7 12.7 0 0 1 39.2 80.54a2.377 2.377 0 0 0 1.709 4.025h10.866l4.75-26.417z"
        fill="#db8758" />
    <path
        d="M56.234 58.148S53.223 71.59 52.7 74.414a12.7 12.7 0 0 1-3.626 6.126 2.377 2.377 0 0 0 1.709 4.025H61.65l4.75-26.417z"
        fill="#f4a86c" />
    <path
        d="M81.359 56.44s-3.011 13.441-3.534 16.266a12.711 12.711 0 0 1-3.625 6.126 2.377 2.377 0 0 0 1.709 4.024h10.866l4.75-26.416z"
        fill="#db8758" />
    <path
        d="M91.234 56.44S88.223 69.881 87.7 72.706a12.711 12.711 0 0 1-3.626 6.126 2.377 2.377 0 0 0 1.709 4.024H96.65l4.75-26.416z"
        fill="#f4a86c" />
    <path
        d="M32.585 59.5c19.125 8.75 63.75 6.667 70.583 16.833s-6.5 24.282-24.667 27.475c22.334 0 34.989-7.417 39.636-15.6 4.948-8.71 5.323-20.585-4.969-31.877C106.483 49 63.335 26.75 41.335 29.75z"
        fill="#E97B2E" />
    <path
        d="M56 47.31C52.33 51.65 46.23 50 46.23 50c2.47 3.5 1.83 10.06 1.83 10.06-3.57.73-9.47-2.14-9.8-2.3 2.3 4.5.31 10.74.31 10.74C23.97 64.42 6.5 53.38 6.5 35.81a38.287 38.287 0 0 0 4.31 3.28c.72-.96 1.46-1.87 2.23-2.72 8.15-9.15 18.79-12.18 40.25-12.18l-3.79 7.23c4.71.5 9.33 3.75 9.33 3.75-3.21 3.21-9.21 4.79-9.21 4.79C55 43.69 56 47.31 56 47.31z"
        fill="#f4a86c" />
    <circle cx="32.667" cy="35.051" r="3" fill="#E97B2E" />
    <g fill="#5D2004">
        <path
            d="M115.244 56.031a1.75 1.75 0 1 0-2.65 2.286c7.855 9.107 9.322 19.688 4.024 29.028-3.86 6.791-12.618 11.566-24.418 13.607 6.272-3.348 11.131-8.015 13.327-13.17a12.545 12.545 0 0 0-.909-12.429 12.792 12.792 0 0 0-5.478-4.143l-.039-.018c-6.787-3.079-18.039-4.495-30.543-6.066-7.357-.924-14.885-1.876-21.58-3.21a8.045 8.045 0 0 0 1.435-.139 1.748 1.748 0 0 0 1.387-1.545 24.149 24.149 0 0 0-.713-8.174 10.605 10.605 0 0 0 8.244-3.615 1.748 1.748 0 0 0 .352-1.6c-.1-.358-.944-3.091-4.462-6.271a21.05 21.05 0 0 0 6.85-4.172 1.75 1.75 0 0 0-.232-2.67 23.324 23.324 0 0 0-1.42-.9C72.5 35.972 89.087 43.187 100.84 49.89a1.75 1.75 0 1 0 1.734-3.04C88.875 39.037 68.688 30.527 53.11 28.3l1.729-3.3a1.75 1.75 0 0 0-1.55-2.563c-23.089 0-34.213 3.639-42.837 14.273a35.036 35.036 0 0 1-2.793-2.21 1.75 1.75 0 0 0-2.909 1.313c0 8.324 3.776 16.106 10.921 22.5a1.75 1.75 0 1 0 2.335-2.608c-5.33-4.773-8.5-10.155-9.449-16.041.4.283.8.551 1.2.818a60.334 60.334 0 0 0 17.084 7.556 1.75 1.75 0 0 0 .828-3.4 58.615 58.615 0 0 1-14.279-6c7.543-9.138 17.088-12.406 36.988-12.683l-1.531 2.919-.9 1.722a1.749 1.749 0 0 0 1.364 2.553 18.688 18.688 0 0 1 6.467 2.217 26.428 26.428 0 0 1-6.6 2.893 1.75 1.75 0 0 0-.55 3.129 16.519 16.519 0 0 1 5.3 5.528c-2.912 2.476-7.056 1.434-7.241 1.387a1.749 1.749 0 0 0-1.885 2.7c1.34 1.9 1.611 5.253 1.59 7.415a22.84 22.84 0 0 1-7.358-2.241A1.75 1.75 0 0 0 36.7 58.55c1.287 2.505.971 5.792.6 7.747a57.638 57.638 0 0 1-12.935-5.871 1.75 1.75 0 1 0-1.843 2.974A61.481 61.481 0 0 0 38.1 70.186a1.788 1.788 0 0 0 .472.064 1.75 1.75 0 0 0 1.666-1.218 21.706 21.706 0 0 0 .842-4.858c.672.17 1.352.335 2.046.494-.646 2.931-1.712 7.806-2.015 9.419a11.22 11.22 0 0 1-3.18 5.249 4.123 4.123 0 0 0 2.98 6.974H61.65a1.749 1.749 0 0 0 1.722-1.44l2.081-11.57a1.75 1.75 0 0 0-3.444-.619L60.187 82.81H50.78a.579.579 0 0 1-.567-.372.6.6 0 0 1 .11-.677c.4-.406.781-.843 1.187-1.317a12.628 12.628 0 0 0 2.912-5.721c.184-1.015.761-3.734 1.636-7.722 3.974.579 8.044 1.093 12.064 1.6 2.856.359 5.73.72 8.534 1.1-.252 1.2-.445 2.139-.546 2.683-.4 2.1-2 4-3.18 5.24a4.13 4.13 0 0 0 2.98 6.984h20.74a1.751 1.751 0 0 0 1.723-1.44l1.385-7.683a6.866 6.866 0 0 1 1.959 1.819 9.088 9.088 0 0 1 .594 9.105c-3.1 7.281-13.019 13.728-24.114 15.675a1.75 1.75 0 0 0 .3 3.474c19.906 0 35.294-6.163 41.162-16.487 6.075-10.703 4.465-22.746-4.415-33.04zM50.979 74.093a9.234 9.234 0 0 1-2.147 4.1c-.336.392-.67.775-1.033 1.146a4.078 4.078 0 0 0-1.086 3.474h-5.8a.581.581 0 0 1-.57-.369.616.616 0 0 1 .131-.7c1.48-1.563 3.513-3.991 4.079-7.01.3-1.574 1.357-6.427 2-9.337q2.943.581 6.043 1.078c-.678 3.067-1.388 6.357-1.617 7.618zm24.363 6.646a.62.62 0 0 1 .129-.706c1.479-1.563 3.511-3.989 4.08-7 .106-.571.314-1.585.578-2.831 2.106.314 4.147.647 6.085 1.007-.1.489-.179.895-.235 1.189a10.372 10.372 0 0 1-2.944 4.977 4.171 4.171 0 0 1-.235.255 4.081 4.081 0 0 0-1.086 3.484h-5.8a.579.579 0 0 1-.572-.375zm19.845.371H85.78a.582.582 0 0 1-.566-.374.6.6 0 0 1 .1-.671c.146-.147.281-.3.353-.386a13.841 13.841 0 0 0 3.756-6.645c.052-.278.129-.667.224-1.133a48.589 48.589 0 0 1 6.848 1.969z" />
        <path
            d="M105.965 52.987a68.641 68.641 0 0 1 2.281 1.537 1.75 1.75 0 0 0 2.018-2.86 70.632 70.632 0 0 0-2.4-1.616 1.75 1.75 0 1 0-1.9 2.939zM78.373 41.815a1.75 1.75 0 0 0-1.311 3.245c2.454.991 4.953 2.066 7.428 3.2a1.75 1.75 0 1 0 1.453-3.185 182.7 182.7 0 0 0-7.57-3.26zm-40.956-6.764a4.75 4.75 0 1 0-4.75 4.75 4.756 4.756 0 0 0 4.75-4.75zm-4.75 1.25a1.25 1.25 0 1 1 1.25-1.25 1.25 1.25 0 0 1-1.25 1.249z" />
    </g>
</svg>
