<svg xmlns="http://www.w3.org/2000/svg" viewBox="0 0 512 512"
    style="enable-background:new 0 0 512 512" xml:space="preserve"><path style="fill:#E97B2E" d="M21.007 217.045c-6.028 0-10.928-3.563-12.788-9.3-1.876-5.773.137-11.742 5.131-15.203l60.916-42.224 1.801 13.996a74.442 74.442 0 0 0 15.978 37.358l11.005 13.597-82.043 1.776z"/><path style="fill:#f4a86c" d="M257.256 451.389c-52.921 0-103.39-16.478-145.95-47.655-22.635-16.58-37.046-41.081-40.577-68.99-3.554-28.074 4.372-55.586 22.316-77.467 12.782-15.587 12.546-38.031-.561-53.367a75.624 75.624 0 0 1-18.108-49.096c0-20.538 8.094-39.753 22.791-54.105 14.207-13.874 32.964-21.514 52.818-21.514.615 0 1.232.008 1.849.023 39.75.943 72.131 32.787 73.717 72.498a75.75 75.75 0 0 1-28.927 62.63H323.82c10.316 0 18.708-8.392 18.708-18.708V76.751c0-5.372 2.66-10.372 7.115-13.375a16.069 16.069 0 0 1 9.007-2.773c2.082 0 4.131.402 6.089 1.194 47.664 19.298 78.682 38.671 100.583 62.818 26.357 29.061 39.171 65.605 39.171 111.719 0 68.442-27.039 125.006-78.195 163.577-44.031 33.195-104.064 51.478-169.042 51.478z"/><path style="fill:#f4a86c" d="M327.009 441.916c-52.921 0-103.39-16.478-145.95-47.655-22.635-16.58-37.046-41.081-40.577-68.99-3.554-28.074 4.372-55.586 22.316-77.467 12.782-15.587 12.546-38.031-.561-53.367a75.625 75.625 0 0 1-18.108-49.097c0-20.538 8.094-39.753 22.791-54.105a76.34 76.34 0 0 1 8.933-7.472 75.128 75.128 0 0 0-25.867-4.569c-19.854 0-38.612 7.641-52.818 21.514-14.697 14.352-22.791 33.566-22.791 54.105a75.617 75.617 0 0 0 18.108 49.096c13.107 15.335 13.343 37.779.561 53.367-17.944 21.881-25.868 49.393-22.316 77.467 3.531 27.909 17.942 52.411 40.577 68.99 42.56 31.176 93.028 47.655 145.95 47.655 27.549 0 54.203-3.298 79.132-9.615-3.116.087-6.241.143-9.38.143z"/><path style="fill:#f4a86c" d="M262.682 408.623c-21.349 0-51.134-6.253-69.551-20.222-12.636-9.585-21.022-24.798-24.25-43.994-2.796-16.632-1.504-35.42 3.64-52.903 2.218-7.539 9.275-12.805 17.161-12.805h224c4.923 0 9.68 2.056 13.052 5.641a17.891 17.891 0 0 1 4.811 13.301c-.698 11.361-4.035 28.715-15.966 46.873-24.964 37.999-75.993 60.119-147.569 63.968a97.47 97.47 0 0 1-5.328.141z"/><circle style="fill:#E97B2E" cx="128.542" cy="139.793" r="21.452"/><path d="M471.152 119.766c-22.718-25.095-54.667-45.12-103.594-64.929a23.638 23.638 0 0 0-22.112 2.31 23.606 23.606 0 0 0-10.428 19.602v118.885c0 6.176-5.024 11.2-11.2 11.2h-109a83.266 83.266 0 0 0 18.234-55.421c-1.744-43.657-37.343-78.667-81.043-79.704-22.593-.523-43.939 7.856-60.091 23.627-14.029 13.7-22.575 31.435-24.584 50.65L9.073 186.372c-7.779 5.392-10.917 14.693-7.995 23.695 2.871 8.846 10.647 14.488 19.894 14.488.164 0 .329-.002.494-.005l72.55-1.572c2.424 10.09.181 21.055-6.777 29.54-19.264 23.492-27.773 53.029-23.959 83.171 3.793 29.976 19.273 56.294 43.589 74.104 43.856 32.126 95.859 49.106 150.387 49.106 70.165 0 133.927-20.595 179.544-57.991 49.197-40.333 75.2-97.242 75.2-164.576 0-48.073-13.361-86.202-40.848-116.566zM21.118 208.463c-3.3.055-4.401-2.329-4.737-3.365-.336-1.035-.828-3.644 1.857-5.505l49.317-34.185a83.12 83.12 0 0 0 17.819 41.661l-64.256 1.394zm236.138 234.345c-51.085 0-99.8-15.906-140.879-45.997-20.714-15.173-33.902-37.599-37.135-63.146-3.254-25.713 4.004-50.908 20.437-70.949 15.421-18.806 15.139-45.883-.674-64.383a67.034 67.034 0 0 1-16.049-43.522c0-18.208 7.175-35.242 20.205-47.966 12.632-12.336 29.204-19.073 46.824-19.073.547 0 1.095.006 1.644.02 35.237.837 63.941 29.063 65.348 64.262a67.172 67.172 0 0 1-26.764 56.391 8.044 8.044 0 0 0 4.833 14.476H323.82c15.048 0 27.289-12.242 27.289-27.289V76.748c0-2.552 1.214-4.833 3.33-6.261 2.125-1.432 4.704-1.701 7.082-.739 80.666 32.66 134.389 73.488 134.389 166.581.001 142.635-119.863 206.479-238.654 206.479z"/><path d="M247.945 406.025c0-3.9-2.793-7.252-6.636-7.91-15.659-2.686-31.966-8.187-42.992-16.55-25.033-18.986-31.575-45.143-19.451-77.746 1.528-4.11-.277-8.877-4.327-10.558a8.045 8.045 0 0 0-10.623 4.603c-18.774 50.064 3.058 80.121 24.679 96.52 13.179 9.997 31.967 16.473 50.023 19.58 4.882.839 9.327-2.984 9.327-7.939zm191.237-115.476c-.15-5.788-.501-19.339-10.309-19.357H236.141c-4.405 0-8.246 3.394-8.378 7.797a8.045 8.045 0 0 0 8.041 8.292h187.074c.855 8.879.174 30.236-14.468 52.523-21.602 32.882-64.765 53.111-125.329 58.942-4.14.399-7.314 3.855-7.314 8.015 0 4.731 4.064 8.468 8.773 8.021 56.988-5.411 99.318-22.744 125.957-51.63 26.835-29.097 29-60.466 28.685-72.603z"/><circle cx="128.542" cy="139.793" r="21.452"/></svg>
