<svg xmlns="http://www.w3.org/2000/svg" viewBox="0 0 64 64">
    <defs>
        <style>.cls-2{fill:#f4a86c}.cls-3{fill:#281111}</style>
    </defs>
    <g id="giraffe">
        <path
            d="M47 27v5l-6 19v4a6 6 0 0 1-6 6h-6a6 6 0 0 1-6-6v-4l-6-19v-5.78A13.86 13.86 0 0 1 18.88 20a14.15 14.15 0 0 1 2.86-3.49 3 3 0 0 0 .25-.25 3.94 3.94 0 0 0 .66-4.26l-1.33-3H21a3 3 0 1 1 .42-6 3 3 0 0 1 2.48 2.26 2.94 2.94 0 0 1 .1 1.17 4 4 0 0 0 .23 2.26l1.23 2.78a3 3 0 0 0 3.22 1.73 13.29 13.29 0 0 1 1.53-.2h3.58a13.29 13.29 0 0 1 1.56.17 3 3 0 0 0 3.22-1.73l1.19-2.69A4.36 4.36 0 0 0 40 6.38 2.34 2.34 0 0 1 40 6a3 3 0 1 1 3 3h-.32l-1.33 3a3.94 3.94 0 0 0 .65 4.26l.25.25A14.15 14.15 0 0 1 45.12 20 13.86 13.86 0 0 1 47 26.22V27z"
            style="fill:#E97B2E" />
        <rect class="cls-2" x="23" y="47" width="18" height="14" rx="6" ry="6" />
        <path class="cls-3"
            d="M29 56a1 1 0 0 1-1-1v-2a1 1 0 0 1 2 0v2a1 1 0 0 1-1 1zm6 0a1 1 0 0 1-1-1v-2a1 1 0 0 1 2 0v2a1 1 0 0 1-1 1z" />
        <path class="cls-2"
            d="M57 29h-2a12.91 12.91 0 0 1-8-2.78A13.86 13.86 0 0 0 45.12 20a14.15 14.15 0 0 0-2.86-3.49l-.26-.25a2.26 2.26 0 0 1 0-.26h2a13 13 0 0 1 13 13zM22 16a2.26 2.26 0 0 1 0 .26 3 3 0 0 1-.25.25A14.15 14.15 0 0 0 18.88 20 13.86 13.86 0 0 0 17 26.22 12.91 12.91 0 0 1 9 29H7a13 13 0 0 1 13-13z" />
        <circle class="cls-3" cx="38.5" cy="32.5" r="1.5" />
        <circle class="cls-3" cx="25.5" cy="32.5" r="1.5" />
        <path class="cls-3"
            d="M38.94 60.52a1 1 0 0 1-.66-1.75A5 5 0 0 0 40 55v-4a1 1 0 0 1 0-.3l6-18.85v-5.59a13 13 0 0 0-.31-2.15 1 1 0 1 1 2-.44 16.78 16.78 0 0 1 .31 2.49V32a1 1 0 0 1 0 .3l-6 18.85V55a7 7 0 0 1-2.4 5.27 1 1 0 0 1-.66.25zM31 62h-2a7 7 0 0 1-7-7v-3.85L16.05 32.3A1 1 0 0 1 16 32v-5.82a14.75 14.75 0 0 1 2-6.68 15.07 15.07 0 0 1 3.06-3.74.87.87 0 0 0 .16-.17 2.94 2.94 0 0 0 .5-3.21L20.68 10A4 4 0 1 1 25 6.56a3.11 3.11 0 0 0 0 1.38 1 1 0 0 1-.65 1.26 1 1 0 0 1-1.26-.66A5 5 0 0 1 23 6.27a1.74 1.74 0 0 0-.05-.75A2.05 2.05 0 0 0 21.29 4 2 2 0 0 0 19 6a2 2 0 0 0 2 2h.22a1 1 0 0 1 1 .59l1.33 3a4.89 4.89 0 0 1-.84 5.38l-.31.32a13.19 13.19 0 0 0-2.67 3.24A12.89 12.89 0 0 0 18 26.28v5.57l6 18.85a1 1 0 0 1 0 .3v4a5 5 0 0 0 5 5h2a1 1 0 0 1 0 2z" />
        <path class="cls-3"
            d="M45.21 21.17a1 1 0 0 1-.89-.55l-.09-.17a13.27 13.27 0 0 0-2.63-3.19c-.12-.11-.23-.22-.34-.34a4.88 4.88 0 0 1-.82-5.36l1.33-3a1 1 0 0 1 1-.59h.13a2.11 2.11 0 0 0 1.63-.71A2 2 0 0 0 43.37 4a2 2 0 0 0-1.65.42A2 2 0 0 0 41 6a.82.82 0 0 0 0 .22 5.4 5.4 0 0 1-.35 3l-1.19 2.68a4 4 0 0 1-4.3 2.32 11.26 11.26 0 0 0-1.43-.22h-3.52c-.49 0-1 .08-1.39.15a4 4 0 0 1-4-1.74 1 1 0 0 1 1.68-1.1 2 2 0 0 0 2 .87c.5-.08 1.05-.14 1.67-.18h3.64a14.49 14.49 0 0 1 1.73.19 2 2 0 0 0 2.14-1.16l1.19-2.68A3.38 3.38 0 0 0 39 6.51 2.57 2.57 0 0 1 39 6a4 4 0 0 1 4.72-3.93 4 4 0 0 1-.4 7.92l-1.06 2.39a3 3 0 0 0 .48 3.2 1 1 0 0 0 .19.18 15.25 15.25 0 0 1 3 3.74l.06.11.06.11a1 1 0 0 1-.44 1.34.93.93 0 0 1-.4.11zM35 62a1 1 0 0 1-1-1 1 1 0 0 1 1.07-1h.07a1 1 0 0 1 1.1.88 1 1 0 0 1-.86 1.1A2.36 2.36 0 0 1 35 62z" />
        <path class="cls-3"
            d="M57 30h-2a13.9 13.9 0 0 1-8.64-3 1 1 0 0 1-.38-.73 12.89 12.89 0 0 0-.31-2.17 1 1 0 1 1 2-.44 16.24 16.24 0 0 1 .31 2A11.83 11.83 0 0 0 55 28h1a12 12 0 0 0-11.83-11A14.34 14.34 0 0 1 46 19.5l.06.11.06.11a1 1 0 0 1-1.78.9l.89-.45-.92.39a.6.6 0 0 1-.06-.11 13.27 13.27 0 0 0-2.63-3.19c-.12-.11-.23-.22-.34-.34a.92.92 0 0 1-.24-.55A2.3 2.3 0 0 1 41 16a1 1 0 0 1 1-1h2a14 14 0 0 1 14 14 1 1 0 0 1-1 1zM9 30H7a1 1 0 0 1-1-1 14.08 14.08 0 0 1 1.17-5.62 1 1 0 1 1 1.84.8A11.81 11.81 0 0 0 8 28h1a11.83 11.83 0 0 0 7.06-2.3 14.61 14.61 0 0 1 2-6.2 14.34 14.34 0 0 1 1.77-2.5A12 12 0 0 0 11 21.09a1 1 0 1 1-1.5-1.32A14 14 0 0 1 20 15h2a1 1 0 0 1 1 1 2.3 2.3 0 0 1 0 .37.92.92 0 0 1-.24.55l-.33.34a13.19 13.19 0 0 0-2.67 3.24A12.89 12.89 0 0 0 18 26.28a1.05 1.05 0 0 1-.38.73A13.9 13.9 0 0 1 9 30z" />
    </g>
</svg>
