<svg xmlns="http://www.w3.org/2000/svg" viewBox="0 0 470 470"
    style="enable-background:new 0 0 470 470" xml:space="preserve"><path style="fill:#E97B2E" d="M45 142.696h380v35H45z"/><path style="fill:#f2ebd9" d="M117.5 412.304a7.5 7.5 0 0 1 0-15H435v-15H35v15h52.5a7.5 7.5 0 0 1 0 15H15v15h440v-15H117.5zM65 222.695h15v144.609H65zM146.25 222.695h15v144.609h-15zM227.5 222.695h15v144.609h-15zM308.75 222.695h15v144.609h-15zM390 222.695h15v144.609h-15zM35 127.696h400v-16.308L235 72.834 35 111.387v16.309z"/><path style="fill:#082947" d="M20 105.122v30.073a7.5 7.5 0 0 0 7.5 7.5H30v42.5a7.5 7.5 0 0 0 7.5 7.5h395a7.5 7.5 0 0 0 7.5-7.5v-42.5h2.5a7.5 7.5 0 0 0 7.5-7.5v-60a7.5 7.5 0 0 0-15 0v20.917L242.5 59.004V35.196a7.5 7.5 0 0 0-15 0v23.808L35 96.112V75.196a7.5 7.5 0 0 0-15 0v29.926zm215-32.288 200 38.554v16.308H35v-16.308l200-38.554zM45 177.695v-35h380v35H45zM462.5 397.304H450v-22.5a7.5 7.5 0 0 0-7.5-7.5H420V222.695h2.5a7.5 7.5 0 0 0 0-15h-50a7.5 7.5 0 0 0 0 15h2.5v144.609h-36.25V222.695h2.5a7.5 7.5 0 0 0 0-15h-50a7.5 7.5 0 0 0 0 15h2.5v144.609H257.5V222.695h2.5a7.5 7.5 0 0 0 0-15h-50a7.5 7.5 0 0 0 0 15h2.5v144.609h-36.25V222.695h2.5a7.5 7.5 0 0 0 0-15h-50a7.5 7.5 0 0 0 0 15h2.5v144.609H95V222.695h2.5a7.5 7.5 0 0 0 0-15h-50a7.5 7.5 0 0 0 0 15H50v144.609H27.5a7.5 7.5 0 0 0-7.5 7.5v22.5H7.5a7.5 7.5 0 0 0-7.5 7.5v30a7.5 7.5 0 0 0 7.5 7.5h455a7.5 7.5 0 0 0 7.5-7.5v-30a7.5 7.5 0 0 0-7.5-7.5zm-7.5 30H15v-15h72.5a7.5 7.5 0 0 0 0-15H35v-15h400v15H117.5a7.5 7.5 0 0 0 0 15H455v15zM80 222.695v144.609H65V222.695h15zm81.25 0v144.609h-15V222.695h15zm81.25 0v144.609h-15V222.695h15zm81.25 0v144.609h-15V222.695h15zm81.25 0v144.609h-15V222.695h15z"/></svg>
