<svg xmlns="http://www.w3.org/2000/svg" viewBox="0 0 512 512"
    style="enable-background:new 0 0 512 512" xml:space="preserve"><path style="fill:#E97B2E" d="M9.112 9.112V502.89h493.779L9.112 9.112zm104.226 251.624 137.928 137.928H113.338V260.736z"/><path style="fill:#e54728" d="M9.112 473.706v29.184h493.777l-29.183-29.184z"/><path style="fill:#E97B2E" d="M9.112 9.112V502.89h26.729V35.841z"/><path d="M509.331 496.448 15.554 2.669A9.11 9.11 0 0 0 0 9.112V502.89A9.11 9.11 0 0 0 9.111 512h493.778a9.11 9.11 0 0 0 6.442-15.552zM404 493.779v-20.123a9.11 9.11 0 0 0-9.111-9.111 9.11 9.11 0 0 0-9.111 9.111v20.123H357.96v-48.087c0-5.032-4.078-9.111-9.111-9.111s-9.111 4.079-9.111 9.111v48.087H311.92v-20.123a9.11 9.11 0 0 0-9.111-9.111 9.11 9.11 0 0 0-9.111 9.111v20.123H265.88v-20.123a9.11 9.11 0 0 0-9.111-9.111 9.11 9.11 0 0 0-9.111 9.111v20.123H219.84v-48.087a9.11 9.11 0 0 0-9.111-9.111 9.11 9.11 0 0 0-9.111 9.111v48.087H173.8v-20.123a9.11 9.11 0 0 0-9.111-9.111 9.11 9.11 0 0 0-9.111 9.111v20.123h-27.823v-20.123a9.11 9.11 0 0 0-9.111-9.111 9.11 9.11 0 0 0-9.111 9.111v20.123H81.718v-48.087a9.11 9.11 0 0 0-9.111-9.111 9.11 9.11 0 0 0-9.111 9.111v48.087H18.222V31.107l462.672 462.672H404z"/><path d="M113.338 407.775h137.927a9.11 9.11 0 0 0 6.443-15.552L119.781 254.294a9.11 9.11 0 0 0-15.554 6.442v137.928a9.111 9.111 0 0 0 9.111 9.111zm9.111-125.044L229.27 389.553H122.449V282.731z"/></svg>
