<svg xmlns="http://www.w3.org/2000/svg" viewBox="0 0 512 512"
    style="enable-background:new 0 0 512 512" xml:space="preserve"><path style="fill:#E97B2E" d="M161.723 285.296 125.415 472.18l15.981 32.32 100-173.205z"/><path style="fill:#f4a86c" d="m137.473 271.295-100 173.205 71.961-4.641 15.981 32.321 90-155.885z"/><path style="fill:#742466" d="m350.277 285.296 36.308 186.884-15.981 32.32-100-173.205z"/><path style="fill:#ba1956" d="m374.527 271.295 100 173.205-71.961-4.641-15.981 32.321-90-155.885z"/><path style="fill:#ba1956" d="M434.5 186c0-17.475-8.971-32.847-22.552-41.786 7.292-14.532 7.375-32.33-1.363-47.464-8.737-15.134-24.192-23.961-40.424-24.912-.951-16.231-9.778-31.686-24.912-40.424a49.711 49.711 0 0 0-27.76-6.605v322.38a49.7 49.7 0 0 0 27.76-6.605c15.134-8.737 23.961-24.192 24.912-40.424 16.231-.951 31.686-9.778 40.424-24.912 8.737-15.134 8.655-32.932 1.363-47.464C425.529 218.847 434.5 203.475 434.5 186z"/><path style="fill:#f4a86c" d="M404.5 186c0-17.475-7.002-32.847-17.603-41.786 5.692-14.532 5.756-32.33-1.064-47.464s-18.884-23.961-31.553-24.912c-.742-16.231-7.633-31.686-19.445-40.424-5.488-4.059-11.424-6.191-17.345-6.605a50.295 50.295 0 0 0-19.704 5.242C288.847 16.471 273.475 7.5 256 7.5s-32.847 8.971-41.786 22.552c-14.532-7.292-32.33-7.375-47.464 1.362s-23.961 24.192-24.912 40.424c-16.231.951-31.686 9.778-40.424 24.912s-8.654 32.932-1.362 47.464C86.471 153.153 77.5 168.525 77.5 186s8.971 32.847 22.552 41.786c-7.292 14.532-7.375 32.33 1.362 47.464s24.192 23.961 40.424 24.912c.951 16.231 9.778 31.686 24.912 40.424s32.932 8.654 47.464 1.362C223.153 355.529 238.525 364.5 256 364.5s32.847-8.971 41.786-22.552a50.295 50.295 0 0 0 19.704 5.242c5.921-.414 11.857-2.546 17.345-6.605 11.813-8.737 18.703-24.192 19.445-40.424 12.67-.951 24.733-9.778 31.553-24.912s6.755-32.932 1.064-47.464c10.601-8.938 17.603-24.31 17.603-41.785z"/><path style="fill:#f4a86c" d="M256 77.5v217c59.923 0 108.5-48.577 108.5-108.5S315.923 77.5 256 77.5z"/><path style="fill:#ff7472" d="M334.5 186c0-59.923-35.146-108.5-78.5-108.5-59.923 0-108.5 48.577-108.5 108.5S196.077 294.5 256 294.5c43.354 0 78.5-48.577 78.5-108.5z"/><path d="m481.022 440.75-70.979-122.939a7.5 7.5 0 0 0-12.99 7.5l63.973 110.803-57.978-3.739a7.5 7.5 0 0 0-7.205 4.16l-25.75 52.079-75.781-131.257a57.566 57.566 0 0 0 5.957-6.17 58.014 58.014 0 0 0 20.045 3.6c10.034 0 19.954-2.666 28.687-7.707a57.339 57.339 0 0 0 27.93-40.15 57.337 57.337 0 0 0 40.15-27.93 57.336 57.336 0 0 0 4.113-48.737A57.34 57.34 0 0 0 442 186a57.338 57.338 0 0 0-20.807-44.263A57.336 57.336 0 0 0 417.08 93a57.339 57.339 0 0 0-40.15-27.93A57.336 57.336 0 0 0 349 24.92a57.459 57.459 0 0 0-28.687-7.707 58.014 58.014 0 0 0-20.045 3.6C289.396 7.678 273.268 0 256 0s-33.396 7.678-44.269 20.813a58.014 58.014 0 0 0-20.045-3.6 57.465 57.465 0 0 0-28.687 7.707 57.339 57.339 0 0 0-27.93 40.15c-16.808 2.85-31.517 12.978-40.15 27.93s-10.048 32.755-4.112 48.737C77.675 152.609 70 168.735 70 186s7.675 33.391 20.807 44.263A57.34 57.34 0 0 0 94.919 279a57.395 57.395 0 0 0 18.282 19.335L30.978 440.75a7.5 7.5 0 0 0 .124 7.707 7.517 7.517 0 0 0 6.854 3.527l66.973-4.319 29.745 60.159a7.5 7.5 0 0 0 6.481 4.172c.081.002.161.004.242.004a7.5 7.5 0 0 0 6.494-3.75l70.979-122.939a7.5 7.5 0 0 0-2.745-10.245 7.497 7.497 0 0 0-10.245 2.745l-63.973 110.803-25.75-52.079a7.5 7.5 0 0 0-7.205-4.16l-57.978 3.739 75.781-131.257a57.71 57.71 0 0 0 8.314 2.073 57.336 57.336 0 0 0 27.93 40.15 57.459 57.459 0 0 0 28.687 7.707 58.014 58.014 0 0 0 20.045-3.6A57.343 57.343 0 0 0 256 372a57.393 57.393 0 0 0 25.886-6.165L364.11 508.25a7.5 7.5 0 0 0 13.217-.426l29.745-60.159 66.973 4.319a7.504 7.504 0 0 0 6.854-3.527 7.503 7.503 0 0 0 .123-7.707zM220.479 337.825a7.499 7.499 0 0 0-9.628-2.58 42.948 42.948 0 0 1-19.164 4.543 42.45 42.45 0 0 1-21.187-5.697c-12.418-7.169-20.334-20.017-21.175-34.367a7.5 7.5 0 0 0-7.049-7.048 42.677 42.677 0 0 1-15.222-3.767 7.743 7.743 0 0 0-.615-.3 42.374 42.374 0 0 1-18.53-17.108c-7.169-12.418-7.601-27.502-1.154-40.35a7.499 7.499 0 0 0-2.579-9.628C92.168 213.618 85 200.339 85 186s7.168-27.618 19.176-35.521a7.499 7.499 0 0 0 2.579-9.628c-6.446-12.848-6.015-27.932 1.154-40.35 7.17-12.418 20.018-20.334 34.367-21.175a7.501 7.501 0 0 0 7.049-7.048c.841-14.35 8.757-27.198 21.175-34.367a42.444 42.444 0 0 1 21.187-5.697 42.948 42.948 0 0 1 19.164 4.543 7.5 7.5 0 0 0 9.628-2.58C228.382 22.168 241.661 15 256 15c14.339 0 27.618 7.168 35.521 19.175a7.501 7.501 0 0 0 9.628 2.58 42.948 42.948 0 0 1 19.164-4.543 42.45 42.45 0 0 1 21.187 5.697c12.418 7.169 20.334 20.017 21.175 34.367a7.5 7.5 0 0 0 7.049 7.048c14.35.841 27.196 8.757 34.366 21.175 7.17 12.417 7.602 27.501 1.155 40.35a7.499 7.499 0 0 0 2.579 9.628C419.832 158.382 427 171.661 427 186s-7.168 27.618-19.176 35.521a7.499 7.499 0 0 0-2.579 9.628c6.446 12.848 6.015 27.932-1.155 40.35s-20.017 20.334-34.366 21.175a7.501 7.501 0 0 0-7.049 7.048c-.841 14.35-8.757 27.198-21.175 34.367a42.444 42.444 0 0 1-21.187 5.697 42.948 42.948 0 0 1-19.164-4.543 7.5 7.5 0 0 0-9.628 2.58 42.707 42.707 0 0 1-10.876 11.302c-.194.12-.383.245-.562.379A42.359 42.359 0 0 1 256 357c-14.339 0-27.618-7.168-35.521-19.175z"/><path d="M372 186c0-25.464-8.101-49.636-23.427-69.902a7.5 7.5 0 0 0-10.506-1.458 7.5 7.5 0 0 0-1.459 10.506C349.949 142.786 357 163.829 357 186c0 55.691-45.309 101-101 101s-101-45.309-101-101S200.309 85 256 85c22.171 0 43.214 7.051 60.854 20.391a7.5 7.5 0 1 0 9.047-11.964C305.636 78.101 281.464 70 256 70c-63.963 0-116 52.038-116 116s52.037 116 116 116 116-52.038 116-116z"/></svg>
