<svg xmlns="http://www.w3.org/2000/svg" viewBox="0 0 64 64"><defs><style>.cls-2{fill:#f2ebd9}.cls-3{fill:#E97B2E}</style></defs><g id="book"><path style="fill:#f2ebd9" d="M2 49h60v7H2z"/><path class="cls-2" d="M32 15c0 42.33-.06 40.9 0 41a13.89 13.89 0 0 0-12.06-7H2V8h17.94A13.89 13.89 0 0 1 32 15zM62 8v41H44.06A13.89 13.89 0 0 0 32 56c0-40.52.06-41.1 0-41a13.89 13.89 0 0 1 12.06-7z"/><path class="cls-3" d="M62 6H44.06A15.91 15.91 0 0 0 32 11.56 15.91 15.91 0 0 0 19.94 6H2a2 2 0 0 0-2 2v48a2 2 0 0 0 2 2h60a2 2 0 0 0 2-2V8a2 2 0 0 0-2-2zm-28 9.52A11.92 11.92 0 0 1 44 10h16v37H44.06A15.91 15.91 0 0 0 34 50.6V15.52zM4 10h15.94A11.94 11.94 0 0 1 30 15.55v35a15.9 15.9 0 0 0-10-3.58H4zm0 44v-3h15.94a11.91 11.91 0 0 1 7.89 3zm56 0H36.18a11.91 11.91 0 0 1 7.88-3H60z"/><circle class="cls-3" cx="17" cy="40" r="2"/><path class="cls-3" d="M20.9 28.32c3-2.34 4.48-7 1.39-11.51a4.53 4.53 0 0 0-1.07-1.07C13.83 10.55 5.38 18 8.71 25.3a2 2 0 0 0 3.64-1.66c-1.6-3.53 2.4-7.55 6.58-4.62l.07.07c1.75 2.52.94 4.91-.55 6.07A8.65 8.65 0 0 0 15 32a2 2 0 0 0 4 0 4.68 4.68 0 0 1 1.9-3.68zM42 22h12a2 2 0 0 0 0-4H42a2 2 0 0 0 0 4zM42 31h12a2 2 0 0 0 0-4H42a2 2 0 0 0 0 4zM42 40h12a2 2 0 0 0 0-4H42a2 2 0 0 0 0 4z"/></g></svg>
