<svg version="1.1" id="Layer_1" xmlns="http://www.w3.org/2000/svg" x="0" y="0" viewBox="0 0 256 256"
    style="enable-background:new 0 0 256 256" xml:space="preserve"><style>.st0{fill:#E97B2E}.st1{fill:#f4a86c}.st2{fill:#f4a86c}.st4{fill:#E97B2E}</style><path class="st1" d="M230.212 238.531h-82.814a9.616 9.616 0 0 1-9.616-9.616v-82.814a9.616 9.616 0 0 1 9.616-9.616h82.814a9.616 9.616 0 0 1 9.616 9.616v82.814c0 5.311-4.306 9.616-9.616 9.616zM107.198 119.514H24.384a9.616 9.616 0 0 1-9.616-9.616V27.085a9.616 9.616 0 0 1 9.616-9.616h82.814a9.616 9.616 0 0 1 9.616 9.616v82.814c0 5.31-4.305 9.615-9.616 9.615zM231.616 119.514h-82.814a9.616 9.616 0 0 1-9.616-9.616V27.085a9.616 9.616 0 0 1 9.616-9.616h82.814a9.616 9.616 0 0 1 9.616 9.616v82.814c0 5.31-4.305 9.615-9.616 9.615z"/><path class="st0" d="M87.892 43.164c-2.153 2.115-1.696 1.873-7.754 28.879-7.136-26.349-6.715-26.364-9.395-28.722-1.207-1.062-2.857-1.602-4.902-1.602-6.393 0-7.65 4.999-8.886 9.734l-5.519 20.56-5.003-22.309c-1.052-4.953-2.166-7.985-6.776-7.985-1.721 0-3.195.585-4.378 1.739-3.449 3.362-2.108 4.645 7.098 41.88.246.986.526 2.055.84 3.206 2.664 9.87 12.462 7.638 14.612 1.974.867-2.295 1.423-4.538 8.003-28.639 8.035 29.8 7.564 29.633 10.298 31.897 2.885 2.391 9.576 2.451 11.653-3.422.706-1.992 10.32-39.805 10.32-42.589 0-5.861-7.135-7.63-10.211-4.601zM190.043 41.719c-16.136 0-25.276 10.884-25.276 26.64 0 33.273 41.359 34.741 49.274 10.835 4.746-14.352.422-37.475-23.998-37.475zM178.864 61.39c3.68-11.618 17.859-11.225 22.068-1.689 3.356 7.628 2.34 24.604-10.756 24.604-12.175.001-13.82-14.996-11.312-22.915z"/><path class="st2" d="M99.805 102.578c-6.245 0-8.737.551-8.737-2.02 0-.717.747-1.567 1.186-2.145 7.847-10.497 7.675-10.632 8.789-10.632 1.279 0 1.918.732 1.918 2.197v9.772c.71 0 1.456-.026 2.103.266.764.345.787 1.755.107 2.228-.578.405-1.505.334-2.21.334 0 1.818.193 3.107-.428 3.796-.569.624-1.692.657-2.291-.013-.635-.71-.437-1.955-.437-3.783zm-5.429-2.829h5.43v-7.335l-5.43 7.335zM222.492 93.247c-2.139 1.642-3.578 2.462-4.32 2.462-1.238 0-1.801-1.704-.946-2.348 1.303-.973 3.373-1.135 5.493-4.078.471-.657.777-1.061.922-1.212.314-.336 1.349-.392 1.881.29.269.346.404.821.404 1.426 0 15.131.573 16.996-1.73 16.996-2.366.001-1.704-2.396-1.704-13.536zM219.24 222.663c6 0 7.275-.234 8.094.404.682.534.673 1.552.107 2.145-.274.287-.688.43-1.245.43-8.808 0-9.9.334-10.77-.524-.748-.738-.604-1.524-.19-2.437.227-.5.475-.894.745-1.18 1.064-1.105 3.765-3.812 4.962-4.621.691-.488 1.266-.978 1.725-1.472 4.408-4.736-2.68-8.545-4.495-3.34-.55 1.57-1.113 1.756-1.762 1.756-.809 0-1.465-.553-1.465-1.553 0-6.811 12.589-7.263 12.589.024.001 4.84-5.902 6.742-8.295 10.368z"/><path class="st1" d="M108.602 238.531H25.788a9.616 9.616 0 0 1-9.616-9.616v-82.814a9.616 9.616 0 0 1 9.616-9.616h82.814a9.616 9.616 0 0 1 9.616 9.616v82.814a9.616 9.616 0 0 1-9.616 9.616z"/><path class="st0" d="M77.849 190.052c2.875-.999 5.164-2.39 6.829-4.155 6.616-7.016 4.265-22.763-9.781-24.451-1.632-.195-3.606-.293-5.872-.293-16.931 0-19.356-.553-21.792 1.886-1.251 1.252-1.887 3.177-1.887 5.723v37.529c0 8.666 8.084 8.964 11.206 5.617 2.306-2.47 1.782-5.001 1.782-19.735 5.41 0 7.195-.374 12.154 8.064 6.227 10.361 7.396 13.629 12.243 13.629 4.046 0 6.311-2.965 6.311-5.512.001-3.094-5.512-13.593-11.193-18.302zm-19.514-18.374c7.248 0 12.006-.139 13.784.611 3.833 1.604 3.253 6.109 2.037 7.516-2.257 2.605-8.092 2.174-15.821 2.174v-10.301zM203.052 166.378c-6.558-5.739-13.733-4.81-29.035-4.81-2.546 0-4.471.635-5.724 1.886-2.514 2.512-1.885 2.969-1.885 41.489 0 1.736.155 3.13.473 4.264.919 3.263 3.931 4.243 7.334 4.243 14.485 0 26.675 1.974 33.668-10.771 4.899-8.929 5.356-27.582-4.831-36.301zm-23.658 6.115h4.968c2.847 0 5.29.307 7.263.912 1.77.545 3.242 1.819 4.501 3.896 2.637 4.347 3.436 18.28-2.475 23.281a6.359 6.359 0 0 1-2.091 1.2c-2.28.812-3.378.708-12.166.708v-29.997z"/><path class="st2" d="M100.883 212.264c-2.778 2.133-4.294 3.04-5.259 2.04a1.364 1.364 0 0 1-.411-.978c0-.974.688-1.194 1.83-1.73 3.469-1.635 4.02-3.496 4.988-4.508.143-.153.412-.227.808-.227 1.016 0 1.477.902 1.477 1.944 0 15.131.573 16.996-1.73 16.996-2.366 0-1.703-2.397-1.703-13.537z"/><path class="st4" d="M230.211 240.531h-82.813c-6.405 0-11.616-5.211-11.616-11.616v-82.813c0-6.405 5.211-11.616 11.616-11.616h82.813c6.405 0 11.616 5.211 11.616 11.616v82.813c.001 6.405-5.21 11.616-11.616 11.616zm-82.813-102.046c-4.2 0-7.616 3.417-7.616 7.616v82.813c0 4.199 3.417 7.616 7.616 7.616h82.813c4.2 0 7.616-3.417 7.616-7.616v-82.813c0-4.199-3.417-7.616-7.616-7.616h-82.813zM107.198 121.515H24.384c-6.405 0-11.616-5.211-11.616-11.616V27.085c0-6.405 5.211-11.616 11.616-11.616h82.813c6.405 0 11.616 5.211 11.616 11.616v82.813c.001 6.406-5.21 11.617-11.615 11.617zM24.384 19.469c-4.2 0-7.616 3.417-7.616 7.616v82.813c0 4.199 3.417 7.616 7.616 7.616h82.813c4.2 0 7.616-3.417 7.616-7.616V27.085c0-4.199-3.417-7.616-7.616-7.616H24.384zM231.616 121.515h-82.813c-6.405 0-11.616-5.211-11.616-11.616V27.085c0-6.405 5.211-11.616 11.616-11.616h82.813c6.405 0 11.616 5.211 11.616 11.616v82.813c0 6.406-5.211 11.617-11.616 11.617zM148.802 19.469c-4.2 0-7.616 3.417-7.616 7.616v82.813c0 4.199 3.417 7.616 7.616 7.616h82.813c4.2 0 7.616-3.417 7.616-7.616V27.085c0-4.199-3.417-7.616-7.616-7.616h-82.813zM108.602 240.531H25.789c-6.405 0-11.616-5.211-11.616-11.616v-82.813c0-6.405 5.211-11.616 11.616-11.616h82.813c6.405 0 11.616 5.211 11.616 11.616v82.813c0 6.405-5.211 11.616-11.616 11.616zM25.789 138.485c-4.2 0-7.616 3.417-7.616 7.616v82.813c0 4.199 3.417 7.616 7.616 7.616h82.813c4.2 0 7.616-3.417 7.616-7.616v-82.813c0-4.199-3.417-7.616-7.616-7.616H25.789z"/></svg>
