<svg xmlns="http://www.w3.org/2000/svg" width="128" height="128">
    <path
        d="M72.17 89.2C21 88.87 16.75 51.04 16.08 46.04 15.5 41.68 8.64 44.61 6.9 38a13.677 13.677 0 0 1-.4-3.55v-.02C6.51 23.29 13 24.2 19.08 24.2c9.09 0 12.31 17.08 11.32 27.41L64 63.45l48.75 3c.56 7.75-6.5 22.75-40.58 22.75z"
        fill="#E97B2E" />
    <path
        d="M33.375 59.345c-8.221 9.4-10.625 16.709-9.183 22.792 1.359 5.73 9.22 18.124 23.285 21.589a3 3 0 0 0 2.478-.517 3.064 3.064 0 0 0 .118-4.865c-6.858-5.467-12.2-11-9.7-16 2.875-5.75 8-13.5 8-13.5zM84.772 68.953c-6.445 7.372-8.329 13.1-7.2 17.867 1.065 4.492 7.225 14.206 18.248 16.923a2.365 2.365 0 0 0 1.951-.406 2.4 2.4 0 0 0 .076-3.823C92.48 95.232 88.3 90.9 90.26 86.984c2.254-4.508 6.271-10.584 6.271-10.584z"
        fill="#E97B2E" />
    <path
        d="M121.5 68.02s-17.1 15.35-48.17 12.55S30.25 62.25 30.4 51.61a39.288 39.288 0 0 1 4-7.42c6.86-9.73 16.35-10.33 31.21-10.04 16.1.31 33.33 11.41 50.07 27.91q2.92 2.865 5.82 5.96z"
        fill="#E97B2E" />
    <path
        d="M115.68 62.06a53.368 53.368 0 0 1-18.84 9.19c-1.11.31-2.27.59-3.47.84a65.044 65.044 0 0 1-19.81.98 71.673 71.673 0 0 1-9.14-1.46 50.51 50.51 0 0 1-3.53-.9c-8.96-2.56-15.38-6.65-19.66-11.18a28.893 28.893 0 0 1-2.25-2.69 21.408 21.408 0 0 1-4.58-12.65 21.044 21.044 0 0 1 11.27-8.39 28.253 28.253 0 0 1 3.49-.86c4.63-.87 10.04-.92 16.45-.79a39.378 39.378 0 0 1 7.56.9q1.845.39 3.69.96a69 69 0 0 1 17.78 8.64c.98.64 1.95 1.31 2.93 2a148.053 148.053 0 0 1 18.11 15.41z"
        fill="#f4a86c" />
    <g fill="#5D2004">
        <path
            d="M19.48 53.91q-.265-.91-.48-1.749a1.75 1.75 0 0 0-3.393.861c.153.6.323 1.226.513 1.874a1.75 1.75 0 0 0 1.68 1.257 1.721 1.721 0 0 0 .494-.071 1.749 1.749 0 0 0 1.186-2.172zM32.1 71.171a1.75 1.75 0 0 0-2.326.844c-1.59 3.4-2.076 6.473-1.443 9.142a1.75 1.75 0 0 0 1.7 1.346 1.77 1.77 0 0 0 .406-.047 1.75 1.75 0 0 0 1.3-2.107c-.445-1.881-.04-4.186 1.207-6.852a1.748 1.748 0 0 0-.844-2.326z" />
        <path
            d="M123.248 68.1a1.745 1.745 0 0 0-.471-1.272 195.074 195.074 0 0 0-5.869-6.009 178.497 178.497 0 0 0-7.8-7.258 1.75 1.75 0 0 0-2.3 2.636c2.028 1.772 4.1 3.684 6.186 5.7A52.69 52.69 0 0 1 96.1 69.661l-6.641-14.442 6.892-7.282q2.263 1.593 4.57 3.388a1.751 1.751 0 1 0 2.154-2.76C89.611 38.058 77.018 32.619 65.645 32.4c-14.942-.294-25.287.3-32.677 10.784l-.012.017-.005.009c-.259.369-.506.759-.754 1.147-.489-7.044-2.474-14.538-6.169-18.6a9.183 9.183 0 0 0-6.948-3.3c-.42 0-.843 0-1.266-.009-3.491-.032-7.445-.078-10.129 2.58C5.71 26.975 4.75 30.06 4.75 34.45c0 8.041 4.341 9.375 7.214 10.257 1.949.6 2.283.817 2.382 1.568l.032.24c.04.3.091.68.157 1.131a1.75 1.75 0 0 0 3.465-.51c-.064-.432-.112-.8-.151-1.084l-.032-.241c-.408-3.093-2.96-3.877-4.823-4.45C11.16 40.8 9.6 40.316 8.8 38.27a43.549 43.549 0 0 0 4.872.272 46.33 46.33 0 0 0 4.118-.17 1.75 1.75 0 1 0-.338-3.484 44.279 44.279 0 0 1-9.2-.209c0-.078-.006-.148-.006-.229 0-3.361.638-5.7 1.9-6.941 1.647-1.631 4.553-1.6 7.632-1.568.434 0 .869.009 1.3.009a5.759 5.759 0 0 1 4.358 2.157c4.222 4.647 5.97 15.514 5.22 23.336v.069c0 .023-.008.049-.008.074a19.119 19.119 0 0 0 1.98 8.314 51.355 51.355 0 0 0-4.993 7.074 44.7 44.7 0 0 1-4.335-7.952 1.75 1.75 0 0 0-3.226 1.36 47.819 47.819 0 0 0 5.815 10.126 19.179 19.179 0 0 0-1.4 12.036c1.329 5.6 9.361 19.133 24.574 22.886a4.516 4.516 0 0 0 1.09.132 4.843 4.843 0 0 0 4.819-4.842 4.758 4.758 0 0 0-1.809-3.748c-6.72-5.357-9.783-9.225-9.629-12.23 8.5 4.025 18.776 6.13 30.638 6.208 1.76 0 3.452-.051 5.088-.13a26.728 26.728 0 0 0 1.779 3 1.75 1.75 0 0 0 2.889-1.976 21.955 21.955 0 0 1-1.984-3.523 11.256 11.256 0 0 1-.668-1.894 10.223 10.223 0 0 1-.151-3.8c.6.012 1.2.04 1.789.04a79.037 79.037 0 0 0 10.067-.64 75.401 75.401 0 0 0-2.283 4.168c-.1.2-.183.395-.262.6l-.016.037-.009.02c-1.861 5 3.176 9.9 8.359 14.035a.657.657 0 0 1-.033 1.044.613.613 0 0 1-.5.112 23.386 23.386 0 0 1-9.737-5.094 1.75 1.75 0 0 0-2.281 2.651 26.835 26.835 0 0 0 11.181 5.838 3.976 3.976 0 0 0 .973.12 4.118 4.118 0 0 0 2.429-.8 4.156 4.156 0 0 0 .143-6.614c-3.317-2.647-7.509-6.371-7.4-9.245 12.156-2.944 17.827-8.5 20.457-12.919a47.383 47.383 0 0 0 10.671-6.657 1.737 1.737 0 0 0 .575-1.223zm-30.626 2.371a63.723 63.723 0 0 1-18.892.858 73.808 73.808 0 0 1-8.356-1.3l7.557-12.623 13.351-.722zm-50.088-12.13L53.6 48.319l10.921 1.1 5.255 6.446-7.96 13.3C52.9 66.686 46.638 62.7 42.534 58.341zm44.05-5.175-13.883.75-5.043-6.187L75.693 37.5a66.384 66.384 0 0 1 17.719 8.454zM65.577 35.9a37.253 37.253 0 0 1 6.372.7l-7.314 9.313-5.67-.57-4.832-.487-4.153-8.28c4.393-.769 9.52-.796 15.597-.676zm-19.095 1.508L50.84 46.1 40.3 55.645a20.058 20.058 0 0 1-4.133-10.882 19.392 19.392 0 0 1 10.315-7.355zm2.5 62.3a1.283 1.283 0 0 1 .487 1.009 1.323 1.323 0 0 1-.535 1.072 1.284 1.284 0 0 1-1.036.239c-13.661-3.37-20.833-15.348-22.006-20.3-.778-3.278-.26-6.782 1.582-10.712q.026-.055.048-.114a41.046 41.046 0 0 1 4.959-7.733 35.246 35.246 0 0 0 10.936 10.249c-1.935 3.178-3.468 5.888-4.561 8.066l-.016.033-.025.048c-3.168 6.324 3.361 12.72 10.168 18.146zm26.884-12.489c.012.049.034.108.047.158a102.77 102.77 0 0 1-3.731.073c-11.442-.075-21.3-2.1-29.374-5.977q1.453-2.713 3.648-6.317c6.676 3.488 15.456 6.146 26.717 7.157.836.076 1.642.116 2.457.167a13.778 13.778 0 0 0 .236 4.739zm17.574-2.455c.741-1.3 1.481-2.526 2.057-3.458a70.628 70.628 0 0 0 9.559-2.517 31.492 31.492 0 0 1-11.616 5.975zm-19.954-5.937c-11.518-1.035-20.236-3.814-26.631-7.378-.039-.028-.072-.061-.113-.087a1.817 1.817 0 0 0-.259-.126c-10.107-5.764-14.257-13.5-14.334-19.269.4-.929.81-1.791 1.231-2.623C36.241 59.651 47.855 72.3 73.388 74.812c2.445.241 4.8.351 7.054.351 17.714 0 29.616-6.8 35.078-10.79 1.119 1.114 2.25 2.26 3.391 3.455-4.64 3.395-20.467 13.251-45.425 10.999z" />
    </g>
</svg>
